<svg width="16" height="17" viewBox="0 0 16 17" fill="none" xmlns="http://www.w3.org/2000/svg">
<g clip-path="url(#clip0_189_1145)">
<path d="M9.15284 14.5833C9.03564 14.7853 8.86741 14.9531 8.665 15.0696C8.46258 15.1862 8.2331 15.2476 7.99951 15.2476C7.76593 15.2476 7.53644 15.1862 7.33403 15.0696C7.13162 14.9531 6.96339 14.7853 6.84618 14.5833M11.9995 5.91663C11.9995 4.85576 11.5781 3.83834 10.8279 3.0882C10.0778 2.33805 9.06038 1.91663 7.99951 1.91663C6.93865 1.91663 5.92123 2.33805 5.17108 3.0882C4.42094 3.83834 3.99951 4.85576 3.99951 5.91663C3.99951 10.5833 1.99951 11.9166 1.99951 11.9166H13.9995C13.9995 11.9166 11.9995 10.5833 11.9995 5.91663Z" stroke="white" stroke-width="1.6" stroke-linecap="round" stroke-linejoin="round"/>
</g>
<defs>
<clipPath id="clip0_189_1145">
<rect width="16" height="16" fill="white" transform="translate(-0.000488281 0.583252)"/>
</clipPath>
</defs>
</svg>
