<svg width="17" height="16" viewBox="0 0 17 16" fill="none" xmlns="http://www.w3.org/2000/svg">
<path d="M8.49998 4.66667C8.49998 3.95942 8.21903 3.28115 7.71893 2.78105C7.21883 2.28095 6.54056 2 5.83331 2H1.83331V12H6.49998C7.03041 12 7.53912 12.2107 7.91419 12.5858C8.28927 12.9609 8.49998 13.4696 8.49998 14M8.49998 4.66667V14M8.49998 4.66667C8.49998 3.95942 8.78093 3.28115 9.28103 2.78105C9.78113 2.28095 10.4594 2 11.1666 2H15.1666V12H10.5C9.96955 12 9.46084 12.2107 9.08577 12.5858C8.71069 12.9609 8.49998 13.4696 8.49998 14" stroke="black" stroke-width="1.6" stroke-linecap="round" stroke-linejoin="round"/>
</svg>
