<svg width="34" height="38" viewBox="0 0 34 38" fill="none" xmlns="http://www.w3.org/2000/svg">
<path d="M9.5 6.01671L17 10.35L24.5 6.01671M9.5 31.9834V23.3334L2 19M32 19L24.5 23.3334V31.9834M2.45 10.6L17 19.0167L31.55 10.6M17 35.8V19M32 25.6667V12.3334C31.9994 11.7488 31.8451 11.1747 31.5526 10.6686C31.26 10.1626 30.8396 9.74231 30.3333 9.45004L18.6667 2.78337C18.1599 2.49081 17.5851 2.33679 17 2.33679C16.4149 2.33679 15.8401 2.49081 15.3333 2.78337L3.66667 9.45004C3.16044 9.74231 2.73997 10.1626 2.44744 10.6686C2.1549 11.1747 2.0006 11.7488 2 12.3334V25.6667C2.0006 26.2512 2.1549 26.8254 2.44744 27.3314C2.73997 27.8375 3.16044 28.2578 3.66667 28.55L15.3333 35.2167C15.8401 35.5093 16.4149 35.6633 17 35.6633C17.5851 35.6633 18.1599 35.5093 18.6667 35.2167L30.3333 28.55C30.8396 28.2578 31.26 27.8375 31.5526 27.3314C31.8451 26.8254 31.9994 26.2512 32 25.6667Z" stroke="#083C5D" stroke-width="3.5" stroke-linecap="round" stroke-linejoin="round"/>
</svg>
