<svg width="19" height="21" viewBox="0 0 19 21" fill="none" xmlns="http://www.w3.org/2000/svg">
<path d="M5.20882 3.2068L9.43766 5.65013L13.6665 3.2068M5.20882 17.848V12.9707L0.97998 10.5274M17.8953 10.5274L13.6665 12.9707V17.848M1.23371 5.79109L9.43766 10.5368L17.6416 5.79109M9.43766 20V10.5274M17.8953 14.2864V6.76842C17.895 6.43883 17.808 6.11512 17.6431 5.82977C17.4781 5.54442 17.241 5.30746 16.9556 5.14267L10.3774 1.3837C10.0917 1.21874 9.76758 1.1319 9.43766 1.1319C9.10774 1.1319 8.78363 1.21874 8.49792 1.3837L1.91972 5.14267C1.63429 5.30746 1.39721 5.54442 1.23226 5.82977C1.06732 6.11512 0.980319 6.43883 0.97998 6.76842V14.2864C0.980319 14.6159 1.06732 14.9397 1.23226 15.225C1.39721 15.5104 1.63429 15.7473 1.91972 15.9121L8.49792 19.6711C8.78363 19.836 9.10774 19.9229 9.43766 19.9229C9.76758 19.9229 10.0917 19.836 10.3774 19.6711L16.9556 15.9121C17.241 15.7473 17.4781 15.5104 17.6431 15.225C17.808 14.9397 17.895 14.6159 17.8953 14.2864Z" stroke="#1E1E1E" stroke-width="1.97346" stroke-linecap="round" stroke-linejoin="round"/>
</svg>
