<svg width="50" height="50" viewBox="0 0 50 50" fill="none" xmlns="http://www.w3.org/2000/svg">
<path d="M15.3647 8.62461L24.5835 13.951L33.8022 8.62461M15.3647 40.542V29.9097L6.146 24.5833M43.021 24.5833L33.8022 29.9097V40.542M6.69912 14.2583L24.5835 24.6038L42.4679 14.2583M24.5835 45.2333V24.5833M43.021 32.7777V16.3888C43.0203 15.6703 42.8306 14.9647 42.471 14.3426C42.1115 13.7206 41.5946 13.204 40.9724 12.8447L26.6321 4.6503C26.0092 4.2907 25.3027 4.10138 24.5835 4.10138C23.8643 4.10138 23.1577 4.2907 22.5349 4.6503L8.19461 12.8447C7.57237 13.204 7.05554 13.7206 6.69597 14.3426C6.3364 14.9647 6.14673 15.6703 6.146 16.3888V32.7777C6.14673 33.4962 6.3364 34.2019 6.69597 34.824C7.05554 35.446 7.57237 35.9626 8.19461 36.3218L22.5349 44.5163C23.1577 44.8759 23.8643 45.0652 24.5835 45.0652C25.3027 45.0652 26.0092 44.8759 26.6321 44.5163L40.9724 36.3218C41.5946 35.9626 42.1115 35.446 42.471 34.824C42.8306 34.2019 43.0203 33.4962 43.021 32.7777Z" stroke="#1E1E1E" stroke-width="4.30208" stroke-linecap="round" stroke-linejoin="round"/>
</svg>
