<svg width="17" height="16" viewBox="0 0 17 16" fill="none" xmlns="http://www.w3.org/2000/svg">
<path d="M8.50004 7.33333V11.3333M6.50004 9.33333H10.5M15.1667 12.6667C15.1667 13.0203 15.0262 13.3594 14.7762 13.6095C14.5261 13.8595 14.187 14 13.8334 14H3.16671C2.81309 14 2.47395 13.8595 2.2239 13.6095C1.97385 13.3594 1.83337 13.0203 1.83337 12.6667V3.33333C1.83337 2.97971 1.97385 2.64057 2.2239 2.39052C2.47395 2.14048 2.81309 2 3.16671 2H6.50004L7.83337 4H13.8334C14.187 4 14.5261 4.14048 14.7762 4.39052C15.0262 4.64057 15.1667 4.97971 15.1667 5.33333V12.6667Z" stroke="black" stroke-width="1.6" stroke-linecap="round" stroke-linejoin="round"/>
</svg>
