<svg width="16" height="17" viewBox="0 0 16 17" fill="none" xmlns="http://www.w3.org/2000/svg">
<g clip-path="url(#clip0_189_1252)">
<path d="M14.6663 8.58329C14.6663 12.2652 11.6816 15.25 7.99967 15.25M14.6663 8.58329C14.6663 4.90139 11.6816 1.91663 7.99967 1.91663M14.6663 8.58329H1.33301M7.99967 15.25C4.31778 15.25 1.33301 12.2652 1.33301 8.58329M7.99967 15.25C9.66719 13.4244 10.6148 11.0553 10.6663 8.58329C10.6148 6.11132 9.66719 3.74219 7.99967 1.91663M7.99967 15.25C6.33215 13.4244 5.38451 11.0553 5.33301 8.58329C5.38451 6.11132 6.33215 3.74219 7.99967 1.91663M1.33301 8.58329C1.33301 4.90139 4.31778 1.91663 7.99967 1.91663" stroke="white" stroke-width="1.6" stroke-linecap="round" stroke-linejoin="round"/>
</g>
<defs>
<clipPath id="clip0_189_1252">
<rect width="16" height="16" fill="white" transform="translate(-0.000488281 0.583252)"/>
</clipPath>
</defs>
</svg>
